<svg width="24" height="24" viewBox="0 0 24 24" fill="none" xmlns="http://www.w3.org/2000/svg">
<g id="notifications">
<mask id="mask0_509_4167" style="mask-type:alpha" maskUnits="userSpaceOnUse" x="0" y="0" width="24" height="24">
<rect id="Bounding box" width="24" height="24" fill="#D9D9D9"/>
</mask>
<g mask="url(#mask0_509_4167)">
<path id="notifications_2" d="M4.99997 18.8654C4.78747 18.8654 4.60936 18.7935 4.46563 18.6497C4.32188 18.5059 4.25 18.3277 4.25 18.1151C4.25 17.9025 4.32188 17.7244 4.46563 17.5808C4.60936 17.4372 4.78747 17.3654 4.99997 17.3654H6.25V10.1154C6.25 8.78336 6.66667 7.58946 7.5 6.53369C8.33333 5.47792 9.41667 4.80261 10.75 4.50774V3.80774C10.75 3.45517 10.8702 3.1587 11.1106 2.91831C11.3509 2.67793 11.6474 2.55774 12 2.55774C12.3525 2.55774 12.649 2.67793 12.8894 2.91831C13.1298 3.1587 13.25 3.45517 13.25 3.80774V4.50774C14.5833 4.80261 15.6666 5.47792 16.5 6.53369C17.3333 7.58946 17.75 8.78336 17.75 10.1154V17.3654H19C19.2125 17.3654 19.3906 17.4373 19.5344 17.5811C19.6781 17.725 19.75 17.9032 19.75 18.1157C19.75 18.3283 19.6781 18.5064 19.5344 18.65C19.3906 18.7936 19.2125 18.8654 19 18.8654H4.99997ZM12 21.8077C11.5077 21.8077 11.0833 21.6327 10.7269 21.2827C10.3705 20.9327 10.1923 20.5051 10.1923 20H13.8077C13.8077 20.5051 13.6327 20.9327 13.2826 21.2827C12.9326 21.6327 12.5051 21.8077 12 21.8077ZM7.74995 17.3654H16.25V10.1154C16.25 8.94665 15.8337 7.94612 15.001 7.11384C14.1683 6.28154 13.1674 5.86539 11.9981 5.86539C10.8288 5.86539 9.82849 6.28154 8.99708 7.11384C8.16566 7.94612 7.74995 8.94665 7.74995 10.1154V17.3654Z" fill="url(#paint0_linear_509_4167)"/>
</g>
</g>
<defs>
<linearGradient id="paint0_linear_509_4167" x1="12" y1="2.55774" x2="12" y2="21.8077" gradientUnits="userSpaceOnUse">
<stop stop-color="#221058"/>
<stop offset="1" stop-color="#301C6B"/>
</linearGradient>
</defs>
</svg>
