<svg width="22" height="22" viewBox="0 0 22 22" fill="none" xmlns="http://www.w3.org/2000/svg">
<g id="Layer_1" clip-path="url(#clip0_509_4152)">
<path id="Vector" d="M11.4737 11.6652C9.605 13.7875 9.03818 16.1506 9.72665 18.8527C9.59465 18.8527 9.48077 18.8527 9.36688 18.8527C6.66218 18.8527 3.95747 18.8527 1.25535 18.8527C0.401236 18.8527 0.0104127 18.4645 0.0104127 17.6181C0.0104127 17.2584 0.0285304 16.896 0.0078245 16.5388C-0.0517049 15.5553 0.365001 14.7892 1.07159 14.1499C1.92053 13.3838 2.93253 12.8998 3.9963 12.5245C5.85982 11.8697 7.77771 11.4866 9.76288 11.528C10.3064 11.5384 10.8474 11.6134 11.4763 11.6652H11.4737Z" fill="url(#paint0_linear_509_4152)"/>
<path id="Vector_2" d="M20.5997 20.3901C20.2762 20.2504 20.0019 20.1442 19.7405 20.0148C19.5722 19.932 19.4583 19.9475 19.3005 20.0614C19.0287 20.2581 18.7336 20.4315 18.4282 20.5687C18.2134 20.6645 18.0995 20.7835 18.0866 21.0191C18.0762 21.2132 18.0245 21.4073 18.0193 21.604C18.0115 21.8939 17.8821 22.0078 17.5896 22.0026C17.0332 21.9897 16.4767 21.9922 15.9228 22.0026C15.6769 22.0052 15.4983 21.9301 15.5139 21.661C15.5579 20.9647 15.1955 20.6334 14.6106 20.2892C14.0981 19.9889 13.7357 19.9864 13.2647 20.2426C12.8868 20.4471 12.8299 20.4134 12.6176 20.0511C12.3433 19.58 12.0767 19.1064 11.7972 18.6379C11.6626 18.4153 11.6833 18.2367 11.911 18.1177C12.483 17.8226 12.7652 17.3981 12.5736 16.7407C12.5659 16.7097 12.5659 16.6734 12.5736 16.6424C12.7574 16.0859 12.4779 15.7727 12.0327 15.4932C11.6056 15.224 11.6212 15.1955 11.867 14.7659C12.1259 14.313 12.395 13.8626 12.6487 13.4071C12.7703 13.1897 12.923 13.0887 13.1508 13.2337C13.7125 13.5882 14.1757 13.5261 14.7555 13.1482C15.211 12.8506 15.475 12.6151 15.4906 12.056C15.5035 11.5228 15.5579 11.5254 16.0859 11.5254C16.588 11.5254 17.0901 11.5332 17.5896 11.5228C17.8562 11.5177 18.0115 11.6031 18.0089 11.8878C18.0037 12.4908 18.1565 12.9904 18.8346 13.1508C18.8941 13.1664 18.9588 13.2052 19.0002 13.2518C19.36 13.653 19.7327 13.5442 20.1494 13.332C20.667 13.068 20.68 13.0887 20.9776 13.6038C21.2287 14.0386 21.4746 14.4734 21.7308 14.9057C21.855 15.1127 21.8369 15.2965 21.6221 15.4026C21.0242 15.7002 20.9026 16.148 20.9052 16.8132C20.9077 17.4266 21.0423 17.8122 21.5677 18.0866C21.8292 18.2238 21.8654 18.4205 21.7075 18.6819C21.4176 19.1555 21.1562 19.6447 20.8689 20.1209C20.8042 20.2297 20.6877 20.3099 20.5972 20.3979L20.5997 20.3901ZM16.7562 18.5861C17.7708 18.5887 18.5887 17.776 18.5913 16.764C18.5913 15.7468 17.7786 14.9289 16.7692 14.9264C15.7572 14.9264 14.9367 15.7417 14.9315 16.7511C14.9263 17.7631 15.7442 18.5809 16.7562 18.5861Z" fill="url(#paint1_linear_509_4152)"/>
<path id="Vector_3" d="M9.43402 8.37554C7.1279 8.37813 5.24884 6.50425 5.24366 4.19554C5.23849 1.8946 7.11755 0.00518717 9.41849 1.0699e-05C11.7298 -0.00516577 13.6192 1.86872 13.6244 4.16448C13.6295 6.49389 11.7608 8.37295 9.43402 8.37554Z" fill="url(#paint2_linear_509_4152)"/>
</g>
<defs>
<linearGradient id="paint0_linear_509_4152" x1="5.73925" y1="11.525" x2="5.73925" y2="18.8527" gradientUnits="userSpaceOnUse">
<stop stop-color="#221058"/>
<stop offset="1" stop-color="#301C6B"/>
</linearGradient>
<linearGradient id="paint1_linear_509_4152" x1="16.7512" y1="11.5226" x2="16.7512" y2="22.0028" gradientUnits="userSpaceOnUse">
<stop stop-color="#221058"/>
<stop offset="1" stop-color="#301C6B"/>
</linearGradient>
<linearGradient id="paint2_linear_509_4152" x1="9.43402" y1="0" x2="9.43402" y2="8.37554" gradientUnits="userSpaceOnUse">
<stop stop-color="#221058"/>
<stop offset="1" stop-color="#301C6B"/>
</linearGradient>
<clipPath id="clip0_509_4152">
<rect width="21.8111" height="22" fill="white"/>
</clipPath>
</defs>
</svg>
